<svg id="Capa_1" data-name="Capa 1" xmlns="http://www.w3.org/2000/svg" viewBox="0 0 320.25 500.28"><defs><style>.cls-1{fill:#4dbbeb;}.cls-2{fill:#fff5cd;}.cls-3{fill:#bee7f4;}.cls-4{fill:#fff;}.cls-5{font-size:48px;font-family:BebasNeue-Regular, Bebas Neue;}.cls-6{letter-spacing:-0.05em;}.cls-7{letter-spacing:0em;}.cls-8{letter-spacing:0em;}</style></defs><path class="cls-1" d="M184.15,468.24a24,24,0,1,1-48.05,0V358.85a202.18,202.18,0,0,0,48.05,0Z"/><path class="cls-2" d="M184.15,310.35v48.5a202.18,202.18,0,0,1-48.05,0v-48.5h0a153.58,153.58,0,0,0,48,0Z"/><path class="cls-1" d="M267.74,267.74a151.41,151.41,0,0,1-83.6,42.61,153.58,153.58,0,0,1-48,0,151.41,151.41,0,0,1-83.59-42.61c-59.34-59.34-59.34-155.89,0-215.23s155.89-59.34,215.23,0S327.08,208.4,267.74,267.74Z"/><path class="cls-3" d="M245.08,75.17a120.14,120.14,0,1,1-169.91,0A120.27,120.27,0,0,1,245.08,75.17Z"/><path d="M192.16,468.24V317A158.8,158.8,0,0,0,273.4,273.4c62.46-62.46,62.46-164.09,0-226.55s-164.09-62.47-226.55,0-62.47,164.09,0,226.55A158.73,158.73,0,0,0,128.09,317v151.2a32,32,0,1,0,64.07,0Zm-48-148.79a160.2,160.2,0,0,0,32,0v32.14a194.63,194.63,0,0,1-32,0ZM58.17,58.17C114.39,2,205.86,2,262.07,58.17s56.22,147.69,0,203.9a142.93,142.93,0,0,1-79.18,40.37,144.86,144.86,0,0,1-45.53,0h0a143,143,0,0,1-79.19-40.37C2,205.86,2,114.39,58.17,58.17Zm102,426.09a16,16,0,0,1-16-16V367.65a208.83,208.83,0,0,0,32,0V468.24a16,16,0,0,1-16,16Z"/><path d="M250.75,250.75a128.16,128.16,0,1,0-181.25,0A128.31,128.31,0,0,0,250.75,250.75ZM80.83,239.42a112.14,112.14,0,1,1,158.59,0A112.27,112.27,0,0,1,80.83,239.42Z"/><path class="cls-4" d="M237.33,203.35a8,8,0,0,0,10.58-4.07A96.25,96.25,0,0,0,228.09,92.16a8,8,0,0,0-11.33,11.32,80.64,80.64,0,0,1,16.51,89.29,8,8,0,0,0,4.06,10.58Z"/><path class="cls-4" d="M228.09,216.76a8,8,0,1,0,0,11.33A8,8,0,0,0,228.09,216.76Z"/><text class="cls-5" transform="translate(110.76 118.39)"><tspan class="cls-6">T</tspan><tspan x="15.26" y="0">ake A </tspan><tspan x="-4.9" y="57.6">C</tspan><tspan class="cls-7" x="13.49" y="57.6">l</tspan><tspan class="cls-8" x="29.81" y="57.6">oser </tspan><tspan class="cls-7"><tspan x="12.07" y="115.2">L</tspan><tspan class="cls-8" x="28.39" y="115.2">ook</tspan></tspan></text></svg>