<svg id="Capa_1" data-name="Capa 1" xmlns="http://www.w3.org/2000/svg" viewBox="0 0 512 371.37"><defs><style>.cls-1{fill:#a6e0fa;}.cls-1,.cls-2,.cls-3,.cls-4,.cls-5,.cls-6,.cls-7,.cls-8{fill-rule:evenodd;}.cls-2{fill:#eff6ff;}.cls-3{fill:#fde588;}.cls-4{fill:#fe8d94;}.cls-5{fill:#fdd76f;}.cls-6{fill:#ff6d75;}.cls-7{fill:#75cef9;}.cls-8{fill:#d9eeff;}</style></defs><path class="cls-1" d="M390.72,417.27c27.81-18.62,36.71-56.81,34.92-74.39H390.9c-.85.37-19.75,26-20.6,26.31l-.14.06c-12.44,29.06-28,39.6-53.24,60.78-9.78,8.19,48.45,4.25,73.8-12.76Z" transform="translate(0 -70.31)"/><path class="cls-2" d="M119.66,285.44l8.93-35.86-8.93-28H84.51l-6.1,31.92,6.1,31.92Z" transform="translate(0 -70.31)"/><path class="cls-1" d="M119.66,285.44,90.24,353.26C56.5,431,198.7,426.23,325.57,385.41c-70.76-10.61-137.21-34.79-205.91-100Z" transform="translate(0 -70.31)"/><path class="cls-1" d="M335.41,107.69C203,59,50.09,67.88,86.78,148.91l32.88,72.69C147.62,122.88,239.07,110.38,335.41,107.69Z" transform="translate(0 -70.31)"/><path class="cls-1" d="M84.51,285.44V221.6L35.44,160.67S-9.22,191,14.32,253.52C-9.21,316,35.44,346.37,35.44,346.37Z" transform="translate(0 -70.31)"/><path class="cls-3" d="M179.34,359c27.13-119.75-16.5-118.87-8.14-230.63-37.67,27.36-46.72,69-51.54,93.22v63.84c8.14,17.61,22.48,50.1,59.68,73.57Z" transform="translate(0 -70.31)"/><path class="cls-3" d="M339.37,380.79c14.83-62,16-147.65,4.85-196.27s-10.4-55-4-75c-1.62-.6-3.21-1.22-4.82-1.81a402,402,0,0,0-52.48-5.9c-23.7,100.73,30,150.06,1.11,284.92a377.66,377.66,0,0,0,41.53-1.3c4.62-1.5,9.24-3,13.8-4.62Z" transform="translate(0 -70.31)"/><path class="cls-3" d="M372.86,368.14c78-32,139.14-76.89,130.89-121.74C484.61,192.68,431.91,150.64,370,122c-25.34,38.76,16.93,151.45.34,247.22.86-.34,1.71-.68,2.56-1.05Zm72-130.81a17.51,17.51,0,1,1,0-24.75A17.49,17.49,0,0,1,444.84,237.33Z" transform="translate(0 -70.31)"/><path class="cls-3" d="M256.11,384.67c18.46-76.46,15.91-133,6.35-180.11s-12.1-86.16-7.37-102.6c-20,1.13-36.94,4.56-51.34,9.64-28.86,100.61,25.32,166.56,1.08,260.31,14.45,5.79,31.41,10.27,51.28,12.76Z" transform="translate(0 -70.31)"/><path class="cls-2" d="M420.06,237.33a17.51,17.51,0,1,0,0-24.75A17.49,17.49,0,0,0,420.06,237.33Z" transform="translate(0 -70.31)"/><path class="cls-4" d="M204.83,371.91c6.46-19.25,11-44.79,11.25-78.47.23-31.73-8.76-53.19-12.56-72.29-6.15-30.94-8.16-65.1.23-109.55a125.77,125.77,0,0,0-32.55,16.78C155.72,236.94,199.16,236,179.34,359A155.51,155.51,0,0,0,204.83,371.91Z" transform="translate(0 -70.31)"/><path class="cls-4" d="M284,386.71c38-133.19-16.45-182.66-1.11-284.92q-14.83-.6-27.84.17c-4.73,16.44-9.13,55,.43,102.12s19,104.13.59,180.59c8.73,1.08,18,1.79,27.93,2Z" transform="translate(0 -70.31)"/><path class="cls-5" d="M372.86,368.14c78-32,139.14-76.89,130.89-121.74a151.2,151.2,0,0,0-19.31-36.71c.46,1.16.91,2.33,1.31,3.49,7.56,41.08-43.1,82.13-111.56,113.37a287,287,0,0,1-3.88,42.64c.85-.34,1.7-.68,2.55-1.05Z" transform="translate(0 -70.31)"/><path class="cls-5" d="M256.11,384.67c1.19-4.85,2.24-9.64,3.21-14.34,1.16-5.76,2.15-11.4,3-17-8.54-.31-16.59-1-24.21-1.93a229.87,229.87,0,0,1-26.79-4.9c-.23,1.33-.51,2.66-.77,4a186.53,186.53,0,0,1-5.75,21.4c14.45,5.79,31.41,10.27,51.28,12.76Z" transform="translate(0 -70.31)"/><path class="cls-6" d="M284,386.71c.85-3,1.64-5.92,2.41-8.82q3.36-12.84,5.61-24.69c-.74,0-1.5.09-2.24.11-8.31.34-16.22.4-23.79.2l-3.31-.11a1.5,1.5,0,0,1-.37,0c-.88,5.56-1.87,11.2-3,17-1,4.7-2,9.46-3.18,14.31l0,0c8.73,1.08,18,1.79,27.93,2Z" transform="translate(0 -70.31)"/><path class="cls-5" d="M325.57,385.41c4.62-1.5,9.24-3,13.81-4.62,2.94-12.31,5.35-25.55,7.22-39.24v0c.15-1.13.32-2.29.43-3.43-8.39,3.32-17,6.47-25.66,9.47-4.56,1.59-9.18,3.15-13.8,4.62-5.3.46-10.46.8-15.51,1q-2.25,11.87-5.61,24.7c-.77,2.89-1.56,5.84-2.41,8.81a377.66,377.66,0,0,0,41.53-1.3Z" transform="translate(0 -70.31)"/><path class="cls-4" d="M370.3,369.19c6-18.94,7.38-13.75,10.41-75.75S353.78,161.55,370,122c-9.72-4.48-19.67-8.64-29.73-12.47-6.41,20-9.16,45.1-2.27,75,15.42,67.33,16.24,134.32,1.41,196.27,10.52-3.63,20.87-7.52,30.93-11.6Z" transform="translate(0 -70.31)"/><path class="cls-6" d="M370.3,369.19c4.74-15,6.61-14.88,8.68-44.85-7.82,3.66-15.88,7.2-24.1,10.58l-2.58,1c-1.76.71-3.48,1.42-5.27,2.13a380.55,380.55,0,0,1-7.66,42.7c10.52-3.63,20.87-7.52,30.93-11.6Z" transform="translate(0 -70.31)"/><path class="cls-5" d="M179.34,359c1.28-7.88,2.27-15.22,3.06-22.14a156.1,156.1,0,0,1-21.06-11.08,140.53,140.53,0,0,1-41.68-40.35C127.8,303.05,142.14,335.54,179.34,359Z" transform="translate(0 -70.31)"/><path class="cls-6" d="M204.83,371.91a186.53,186.53,0,0,0,5.75-21.4c.26-1.31.54-2.64.77-4-.54-.14-1.08-.28-1.62-.4-5.87-1.5-11.4-3.2-16.64-5.07q-3.19-1.15-6.27-2.36c-1-.42-2.06-.85-3.11-1.3l-1.31-.54c-.79,6.92-1.78,14.26-3.06,22.14a155.51,155.51,0,0,0,25.49,12.9Z" transform="translate(0 -70.31)"/><path class="cls-7" d="M35.44,346.37l49.07-60.93V253c-3.77,5.56-67.76,71.9-65.29,75.69C26.87,340.56,35.44,346.37,35.44,346.37Z" transform="translate(0 -70.31)"/><path class="cls-8" d="M84.51,253h35.15v32.4H84.51Z" transform="translate(0 -70.31)"/><path d="M432.48,199.94h0a25,25,0,0,0,0,50h0a25,25,0,0,0,0-50Zm7,32.1a9.94,9.94,0,0,1-7,2.94h0a10,10,0,0,1,0-20h0a10,10,0,0,1,7,17.1Z" transform="translate(0 -70.31)"/><path d="M511.12,245.05a6.62,6.62,0,0,0-.31-1.16c-15.32-43-52.61-82.22-107.85-113.43-47.07-26.6-104.82-46.17-162.63-55.13-35.85-5.56-69.12-6.52-96.22-2.78-30,4.13-50.79,13.59-61.82,28.11C75,110.29,68.63,127,79.94,152L108,214.1H88.1L41.28,156a7.49,7.49,0,0,0-10.06-1.5c-.52.35-12.8,8.82-21.78,25.66-8,15-14.93,39.83-3.11,73.39-11.82,33.56-4.92,58.36,3.11,73.39,9,16.84,21.26,25.31,21.78,25.66a7.49,7.49,0,0,0,10.06-1.5L88.1,292.94h20.13L83.36,350.27c-7.39,17-7.58,31.62-.57,43.4,9.18,15.41,29.8,24.62,61.28,27.36a7.5,7.5,0,1,0,1.3-14.94c-25.66-2.24-43.3-9.38-49.69-20.09-4.4-7.4-3.92-17.41,1.44-29.76L120,303.51c8.56,16.68,22.07,37.88,46.5,55.81,26.58,19.52,60.74,30.92,102,34.09-31.87,7.36-63,12-90.13,13.19a7.5,7.5,0,0,0,.32,15H179c43.37-1.88,97.17-12.46,148.53-28.95.26-.07,9.81-3.21,14.31-4.76,0,0,7.4-2.61,12.35-4.41-8.66,13.12-19.24,21.89-34,34.12-2.57,2.12-5.25,4.34-8,6.69-4.84,4.05-4.46,9.34-2.06,12.54,1.05,1.4,3.65,4.86,16.57,4.86a134.41,134.41,0,0,0,20.88-2c9.2-1.48,32.25-6,47.39-16.19,27.49-18.41,38.66-54.42,38.47-76.38,26.95-15.58,47.83-32.15,61.1-48.79,14.26-17.9,19.87-35.82,16.66-53.28ZM77,282.8,34.44,335.65a66.12,66.12,0,0,1-19.38-48.06l30.45-9.17a7.5,7.5,0,1,0-4.33-14.36l-24.33,7.33a104.62,104.62,0,0,1,4.48-15.23,7.39,7.39,0,0,0,0-5.28,101.84,101.84,0,0,1-5.39-20.14l24.71,9.51a7.5,7.5,0,0,0,5.39-14L15.1,214.34a65,65,0,0,1,19.3-43L77,224.24V282.8Zm35.15-4.86H92V229.1h20.15Zm5.18-79.68L93.61,145.81c-6.73-14.86-6.53-26.66.62-36.08C111.52,87,168,79.3,238,90.15q11.35,1.75,22.68,4.08c-44.18,1.55-79,13.66-104,36.26-22.92,20.75-33.69,47.15-39.4,67.77Zm56.37,147.62c-27.42-20.8-39.34-46.47-46.55-62.08V222.34c3.64-18.25,10.29-50.44,34.35-75.57-3.68,41.11,1.85,65.62,7.23,89.41,6.11,27,12.41,55,5,109.7Zm26.42,15.78q-6.69-3.09-12.59-6.55c9.39-62.17,2.51-92.7-4.17-122.24-6-26.6-11.69-51.77-5.19-100.17a114.12,114.12,0,0,1,15.92-9c-5.23,34.68-4.54,65.72,2.07,99,1.09,5.52,2.57,11.11,4.14,17,3.95,14.9,8.43,31.8,8.27,53.75C208.41,319.41,205.57,342.32,200.13,361.66ZM278.39,379c-4.5-.2-8.85-.51-13.08-.9,13.41-61.12,9-108.32,3.57-142.95a7.5,7.5,0,1,0-14.82,2.34c5.3,33.57,9.54,79.4-3.7,138.77a198.57,198.57,0,0,1-36.25-8.93c6.09-21,9.28-45.77,9.47-73.83.17-23.95-4.78-42.66-8.77-57.7-1.5-5.68-2.93-11-3.93-16.11-6.79-34.15-7-65.91-.54-102.35a175.42,175.42,0,0,1,35.14-7.06c-4,21.68-5.26,56.11,2.68,95.3a7.52,7.52,0,0,0,7.35,6,7.78,7.78,0,0,0,1.5-.15,7.5,7.5,0,0,0,5.86-8.84c-8.48-41.85-5.6-76.18-1.86-93.38q6.54-.24,13.38-.15c-4.76,40.75,1.18,74,6.94,106.17,8.1,45.24,16.45,92-2.94,163.76ZM333,375.07c-2.93,1-5.87,2-8.82,2.92-10.71.89-20.81,1.31-30.36,1.33,19-72.93,10.53-120.59,2.28-166.74-5.88-32.83-11.44-64-6.67-102.93a404.37,404.37,0,0,1,41.54,4.9c-5.92,22.72-6.05,46.78-.32,71.64C345.75,252.14,346.53,315.66,333,375.07Zm16.6-5.86c11.95-59,10.51-121.58-4.33-186.38-5.08-22.05-5.1-43.31-.09-63.34q7.86,3.15,15.5,6.54c-6.53,23.56-1.24,54.09,4.34,86.26,4.66,26.83,9.48,54.59,8.2,80.78-2.54,51.86-3.83,55.58-7.65,66.62-.4,1.18-.85,2.48-1.32,3.89q-7.25,2.9-14.65,5.63Zm36.94,41.84c-13.68,9.18-38.09,14.06-53.48,15.33,18.18-15.1,31.8-27.25,42.75-51.33,15.05-6.19,29.1-12.68,42-19.4-2.2,17.27-11.23,42-31.28,55.4ZM482.73,289c-19.6,24.58-56.53,47.76-100.23,67,2.39-9,3.71-21.46,5.7-62.14,1.36-27.86-3.6-56.45-8.4-84.09-5.08-29.29-9.91-57.14-5.28-77.25,7.22,3.53,14.26,7.21,21.06,11.05,51.79,29.26,86.66,65.5,100.89,104.82,2.15,12.83-2.47,26.5-13.74,40.65Z" transform="translate(0 -70.31)"/></svg>