<svg id="Layer_1" data-name="Layer 1" xmlns="http://www.w3.org/2000/svg" viewBox="0 0 410.9 756.2"><defs><style>.cls-1,.cls-5{fill:#fff;}.cls-1,.cls-2{stroke:#000;stroke-miterlimit:10;stroke-width:13.81px;}.cls-2{fill:#6ca1d2;}.cls-3{fill:none;}.cls-4,.cls-5{isolation:isolate;}.cls-5{font-size:46px;font-family:Montserrat-ExtraLight, Montserrat;font-weight:200;}.cls-6{letter-spacing:-0.02em;}.cls-7{letter-spacing:-0.01em;}.cls-8{letter-spacing:-0.01em;}.cls-9{letter-spacing:-0.01em;}.cls-10{letter-spacing:-0.01em;}.cls-11{letter-spacing:0em;}.cls-12{fill:#c2dffb;}.cls-13{fill:#9cd0fa;}.cls-14{fill:#865840;}.cls-15{fill:#ce4135;}.cls-16{fill:#9e684b;}.cls-17{fill:#92c2e9;}.cls-18{fill:#e3e3e1;}.cls-19{fill:#4fac93;}.cls-20{fill:#42917d;}</style></defs><path d="M21.8,712.6H389.1a21.85,21.85,0,0,1,21.8,21.8h0a21.85,21.85,0,0,1-21.8,21.8H21.8A21.85,21.85,0,0,1,0,734.4H0A21.79,21.79,0,0,1,21.8,712.6Z"/><path class="cls-1" d="M43,6.91H366a31.82,31.82,0,0,1,31.8,31.8v654.5A31.82,31.82,0,0,1,366,725H43a31.82,31.82,0,0,1-31.8-31.8V38.71A31.75,31.75,0,0,1,43,6.91Z"/><path class="cls-2" d="M367.8,58.91v613.9A18.2,18.2,0,0,1,349.6,691H59.4a18.2,18.2,0,0,1-18.2-18.2V58.91a18.2,18.2,0,0,1,18.2-18.2H349.6A18.26,18.26,0,0,1,367.8,58.91Z"/><rect class="cls-3" x="72.5" y="105.41" width="264" height="521"/><g class="cls-4"><text class="cls-5" transform="translate(166.33 139.54)">It is</text><text class="cls-5" transform="translate(89.33 194.74)">estima<tspan class="cls-6" x="154.19" y="0">t</tspan><tspan x="171.3" y="0">ed </tspan></text><text class="cls-5" transform="translate(110.83 249.94)">that less </text><text class="cls-5" transform="translate(83.83 305.14)">than 11% of </text><text class="cls-5" transform="translate(109.03 360.34)">plastic is </text><text class="cls-5" transform="translate(82.83 415.54)"><tspan class="cls-7">r</tspan><tspan x="17.2" y="0">e</tspan><tspan class="cls-8" x="44.39" y="0">c</tspan><tspan class="cls-9" x="69.23" y="0">y</tspan><tspan class="cls-10" x="92.32" y="0">c</tspan><tspan x="117.16" y="0">led in </tspan></text><text class="cls-5" transform="translate(130.63 470.74)"><tspan class="cls-8">C</tspan><tspan x="32.38" y="0">a</tspan><tspan class="cls-11" x="58.97" y="0">n</tspan><tspan x="89.84" y="0">da</tspan></text></g><g id="filled_outline" data-name="filled outline"><path class="cls-12" d="M182.7,555.51v20.9a2.48,2.48,0,0,1-2.5,2.5H144.7a2.48,2.48,0,0,1-2.5-2.5h0v-27.9h-8.3a7,7,0,0,0-7,7v95a4.44,4.44,0,0,0,4.4,4.4h62.1a4.44,4.44,0,0,0,4.4-4.4v-102h-8.2A7.06,7.06,0,0,0,182.7,555.51Z"/><path class="cls-13" d="M142.2,548.51H146a6.27,6.27,0,0,1,6.3,6.29v24.1h-7.6a2.48,2.48,0,0,1-2.5-2.5h0Z"/><path class="cls-13" d="M195.4,548.51h2.5V589h-2.5Z"/><path class="cls-14" d="M262.9,654.91H239.1a10.82,10.82,0,0,1-10.8-10.8,15,15,0,0,1,.2-2.2l1-3.6a59.44,59.44,0,0,0,1-27.8l-.5-2.6a86.78,86.78,0,0,1-1.7-17.6V567a18.24,18.24,0,0,1,1.2-6.5l14-37.4h15.2l14,37.4a17.85,17.85,0,0,1,1.2,6.5v24a85.85,85.85,0,0,1-1.5,16l-1,5.4a61.59,61.59,0,0,0,1.7,28.6l.2.6a10.78,10.78,0,0,1-8.1,12.9,6.8,6.8,0,0,1-2.3.4Z"/><path class="cls-15" d="M228.3,563.71h45.6v32.9H228.3Z"/><path class="cls-15" d="M241,508h20.3v15.2H241Z"/><path class="cls-16" d="M263.8,639.71a2.49,2.49,0,0,1-2.4-1.7l-.8-2.3a39.45,39.45,0,0,1,.8-27.3,2.52,2.52,0,0,1,3.4-1.2,2.48,2.48,0,0,1,1.3,3.09,35.09,35.09,0,0,0-.7,23.91l.8,2.3a2.59,2.59,0,0,1-1.6,3.2h-.8Z"/><path class="cls-16" d="M259.7,556.1a2.36,2.36,0,0,1-2.3-1.59l-1-2.5a2.53,2.53,0,0,1,4.7-1.9l1,2.5a2.54,2.54,0,0,1-1.4,3.3h0A2.07,2.07,0,0,1,259.7,556.1Z"/><path class="cls-16" d="M255.6,546a2.37,2.37,0,0,1-2.3-1.6l-2-5.1a2.53,2.53,0,0,1,4.7-1.9l2,5.1a2.54,2.54,0,0,1-1.4,3.3A1.64,1.64,0,0,1,255.6,546Z"/><path class="cls-13" d="M137.1,622a2.48,2.48,0,0,1-2.5-2.5h0V606.8a2.5,2.5,0,0,1,5,0v12.71A2.48,2.48,0,0,1,137.1,622Z"/><path class="cls-13" d="M137.1,634.71a2.48,2.48,0,0,1-2.5-2.5v-2.5a2.5,2.5,0,0,1,5,0v2.5A2.54,2.54,0,0,1,137.1,634.71Z"/><path class="cls-12" d="M223.2,556.1H208l-9.3,16.7a27.2,27.2,0,0,0-3.4,13.1,3.2,3.2,0,0,0,3.1,3.2h34.2a3.16,3.16,0,0,0,3.2-3.2,27.2,27.2,0,0,0-3.4-13.1Z"/><path class="cls-12" d="M235.8,586.51a3.11,3.11,0,0,1-3.1,2.5H198.5a3.21,3.21,0,0,1-3.1-2.5Z"/><path class="cls-13" d="M208,540.91h15.2a2.48,2.48,0,0,1,2.5,2.5h0v12.7H205.4v-12.7A2.78,2.78,0,0,1,208,540.91Z"/><path class="cls-12" d="M198.5,619.51h34.2a3.16,3.16,0,0,1,3.2,3.2v8.9a3.16,3.16,0,0,1-3.2,3.2H198.5a3.16,3.16,0,0,1-3.2-3.2v-8.9A3.29,3.29,0,0,1,198.5,619.51Z"/><path class="cls-12" d="M198.5,604.3h34.2a3.17,3.17,0,0,1,3.2,3.21v8.9a3.16,3.16,0,0,1-3.2,3.2H198.5a3.16,3.16,0,0,1-3.2-3.2v-8.9A3.3,3.3,0,0,1,198.5,604.3Z"/><path class="cls-12" d="M198.5,589.1h34.2a3.17,3.17,0,0,1,3.2,3.2v8.91a3.16,3.16,0,0,1-3.2,3.2H198.5a3.16,3.16,0,0,1-3.2-3.2V592.3A3.3,3.3,0,0,1,198.5,589.1Z"/><path class="cls-12" d="M229.6,654.91H201.7a6.27,6.27,0,0,1-6.3-6.3h0v-10.8a3.2,3.2,0,0,1,3.1-3.2h34.2a3.2,3.2,0,0,1,3.2,3.1h0v10.8a6.3,6.3,0,0,1-6.3,6.4Z"/><path class="cls-13" d="M235.8,586.51a3.11,3.11,0,0,1-3.1,2.5H198.5a3.21,3.21,0,0,1-3.1-2.5Z"/><path class="cls-13" d="M235.8,601.71a3.11,3.11,0,0,1-3.1,2.5H198.5a3.21,3.21,0,0,1-3.1-2.5Z"/><path class="cls-13" d="M235.9,616.91a3.11,3.11,0,0,1-3.1,2.5H198.6a3.21,3.21,0,0,1-3.1-2.5Z"/><path class="cls-13" d="M235.9,632.1a3.11,3.11,0,0,1-3.1,2.5H198.6a3.2,3.2,0,0,1-3.1-2.5Z"/><path class="cls-17" d="M205.5,553.6h20.3v2.5H205.5Z"/><path class="cls-18" d="M197.9,654.91H167.5l-5.1-45.6h40.5Z"/><path class="cls-19" d="M162.4,599.21l2.5-10.1h35.5l2.5,10.1Z"/><circle class="cls-14" cx="182.7" cy="629.6" r="7.6"/><path class="cls-20" d="M159.9,599.21h45.6V609.3H159.9Z"/><path d="M182.7,639.71a10.1,10.1,0,1,0-10.1-10.1,10.07,10.07,0,0,0,10.1,10.1Zm0-15.2a5.1,5.1,0,1,1-5.1,5.09,5.11,5.11,0,0,1,5.1-5.09Z"/><path d="M275.1,559.71l-12.8-34.2a2.54,2.54,0,0,0,1.5-2.3V508a2.48,2.48,0,0,0-2.5-2.5H241a2.48,2.48,0,0,0-2.5,2.5v15.2a2.53,2.53,0,0,0,1.5,2.3l-11.7,31.2a3.92,3.92,0,0,1,.1-.5v-12.7a5.12,5.12,0,0,0-5.1-5.1H208.1a5.12,5.12,0,0,0-5.1,5.1v12.7a2.61,2.61,0,0,0,1,2l-3.6,6.4v-16a2.48,2.48,0,0,0-2.5-2.5h-8.2a9.56,9.56,0,0,0-9.5,9.5v20.9H154.9V555a8.92,8.92,0,0,0-8.9-8.9H134a9.56,9.56,0,0,0-9.5,9.5v95a7,7,0,0,0,7,7H198a2,2,0,0,0,1.3-.4,10.86,10.86,0,0,0,2.5.4h27.9a8.77,8.77,0,0,0,4.2-1.1,14,14,0,0,0,5.3,1.1H263a13.36,13.36,0,0,0,13.3-13.3,15.26,15.26,0,0,0-.3-3v-.2l-.2-.6a59.09,59.09,0,0,1-1.7-27.4l1-5.4a83.47,83.47,0,0,0,1.2-9.91c.2-.29,0-35.2-.4-35.7a22.37,22.37,0,0,0-.7-2.4Zm-31.6-49.2h15.2V520.6H243.5Zm1.7,15.2h11.7l13.3,35.5H231.9ZM208,543.51h15.2V553.6H208Zm-9.6,48.09,1.3,5.1h-34l1.3-5.1Zm4.6,10.11v5.09H162.5v-5.09ZM144.7,551.1H146a3.8,3.8,0,0,1,3.8,3.8v21.5h-5.1ZM131.4,652.41a2,2,0,0,1-1.9-1.9h0v-95a4.44,4.44,0,0,1,4.4-4.41h5.7v25.3a5.12,5.12,0,0,0,5.1,5.1h35.5a5.12,5.12,0,0,0,5.1-5.1V555.5a4.44,4.44,0,0,1,4.4-4.4h5.7v35.5H165a2.58,2.58,0,0,0-2.5,1.9l-2,8.2h-.6a2.48,2.48,0,0,0-2.5,2.5h0v10.1a2.48,2.48,0,0,0,2.5,2.5h.3l4.5,40.5Zm64.2,0H169.7l-4.5-40.5h34.9Zm37.8-3.81a3.8,3.8,0,0,1-3.8,3.8H201.7a3.4,3.4,0,0,1-1-.1l1.7-15.09h30.3a.64.64,0,0,1,.6.59Zm0-17.09a.64.64,0,0,1-.6.59H203L204.1,622h28.6a.64.64,0,0,1,.6.59v8.91Zm0-15.21a.65.65,0,0,1-.6.6H204.7l.6-5.1h.3a2.47,2.47,0,0,0,2.5-2.5v-2.5h24.7a.65.65,0,0,1,.6.6Zm0-15.2a.65.65,0,0,1-.6.6H208.1v-2.5a2.48,2.48,0,0,0-2.5-2.5h-.7l-1.3-5.1h29a.65.65,0,0,1,.6.6Zm-.7-14.59H200.4V575.1c.2-.3.3-.7.5-1l8.6-15.4h12.2l8.6,15.4a24.46,24.46,0,0,1,3.1,11.8c-.1.4-.3.61-.7.61Zm36.6,62.79a8.1,8.1,0,0,1-6.4,3.1H239.1a7.57,7.57,0,0,1-1.5-.1,9.46,9.46,0,0,0,.8-3.7V637.8a6.36,6.36,0,0,0-1-3.2,5.78,5.78,0,0,0,1-3.2v-8.9a6.33,6.33,0,0,0-1-3.2,5.78,5.78,0,0,0,1-3.2v-8.9a6.33,6.33,0,0,0-1-3.2,5.78,5.78,0,0,0,1-3.2v-1.9H271c-.2,2.5-.6,5-1,7.5l-1,5.4a62.75,62.75,0,0,0,1.8,29.8l.2.5a8.59,8.59,0,0,1-1.7,7.2Zm2-55.2H238.4v-1.9a6.33,6.33,0,0,0-1-3.2,5.78,5.78,0,0,0,1-3.2,29.86,29.86,0,0,0-3.7-14.3l-3-5.3h39.6v27.9Z"/><path d="M137.1,604.3a2.48,2.48,0,0,0-2.5,2.5h0v12.71a2.5,2.5,0,0,0,5,0V606.8a2.48,2.48,0,0,0-2.5-2.5Z"/><path d="M137.1,627.1a2.48,2.48,0,0,0-2.5,2.5h0v2.5a2.5,2.5,0,0,0,5,0h0v-2.5a2.48,2.48,0,0,0-2.5-2.5Z"/><path d="M264.7,607a2.54,2.54,0,0,0-3.3,1.4h0a39.45,39.45,0,0,0-.8,27.3l.8,2.3a2.53,2.53,0,0,0,4.8-1.61h0l-.8-2.3a34.5,34.5,0,0,1,.7-23.9,2.46,2.46,0,0,0-1.4-3.19Z"/><path d="M262.1,552.71l-1-2.5a2.53,2.53,0,1,0-4.7,1.89l1,2.5a2.52,2.52,0,0,0,3.4,1.2,2.62,2.62,0,0,0,1.3-3.09Z"/><path d="M258,542.51l-2-5.1a2.52,2.52,0,0,0-3.4-1.2,2.48,2.48,0,0,0-1.3,3.09l2,5.1a2.53,2.53,0,0,0,4.7-1.89Z"/></g></svg>

