<svg id="Layer_1" data-name="Layer 1" xmlns="http://www.w3.org/2000/svg" viewBox="0 0 410.9 756.2"><defs><style>.cls-1,.cls-4{fill:#fff;}.cls-1,.cls-2{stroke:#000;stroke-miterlimit:10;stroke-width:13.81px;}.cls-2{fill:#6ca1d2;}.cls-3,.cls-4{isolation:isolate;}.cls-4{font-size:46px;font-family:Montserrat-ExtraLight, Montserrat;font-weight:200;}.cls-5{letter-spacing:-0.01em;}.cls-6{letter-spacing:0em;}.cls-7{letter-spacing:-0.01em;}.cls-8{letter-spacing:-0.02em;}</style></defs><path d="M21.8,712.6H389.1a21.85,21.85,0,0,1,21.8,21.8h0a21.85,21.85,0,0,1-21.8,21.8H21.8A21.85,21.85,0,0,1,0,734.4H0A21.79,21.79,0,0,1,21.8,712.6Z"/><path class="cls-1" d="M44,6.91H367a31.82,31.82,0,0,1,31.8,31.8v654.5A31.82,31.82,0,0,1,367,725H44a31.82,31.82,0,0,1-31.8-31.8V38.71A31.88,31.88,0,0,1,44,6.91Z"/><path class="cls-2" d="M368.8,58.91v613.9A18.2,18.2,0,0,1,350.6,691H60.4a18.2,18.2,0,0,1-18.2-18.2V58.91a18.2,18.2,0,0,1,18.2-18.2H350.6A18.26,18.26,0,0,1,368.8,58.91Z"/><g class="cls-3"><text class="cls-4" transform="translate(94.06 321.8)">Cli<tspan class="cls-5" x="56.26" y="0">c</tspan><tspan x="81.1" y="0">k </tspan><tspan class="cls-6" x="119.32" y="0">h</tspan><tspan x="150.19" y="0">e</tspan><tspan class="cls-7" x="177.37" y="0">r</tspan><tspan x="194.58" y="0">e</tspan></text><text class="cls-4" transform="translate(130.56 377)"><tspan class="cls-8">t</tspan><tspan x="17.11" y="0">o fi</tspan><tspan class="cls-6" x="87.03" y="0">n</tspan><tspan x="117.9" y="0">d</tspan></text><text class="cls-4" transform="translate(161.36 432.2)">out!</text></g></svg>