<svg id="Capa_1" data-name="Capa 1" xmlns="http://www.w3.org/2000/svg" viewBox="0 0 607.6 594.75"><defs><style>.cls-1{opacity:0.41;}.cls-2{fill:#d8e2f3;}.cls-3{fill:#bacdea;}</style></defs><g class="cls-1"><path class="cls-2" d="M439.28,330.86l104.54-86.32a16,16,0,0,1,22.45,2.14l30.47,36.89A16,16,0,0,1,594.6,306L262.54,580.24A31.9,31.9,0,0,1,217.63,576L14.51,330a31.9,31.9,0,0,1,4.28-44.91L350.85,10.86A16,16,0,0,1,373.31,13L403.78,49.9a16,16,0,0,1-2.15,22.46L297.1,158.68A8,8,0,0,0,296,169.91l9,10.85a16,16,0,0,0,15.88,5.38l15.55-3.58a16,16,0,0,1,15.88,5.38L421,271.13a15.94,15.94,0,0,1,2.29,16.62l-6.46,14.58a15.93,15.93,0,0,0,2.29,16.61l8.95,10.85a8,8,0,0,0,11.23,1.07Z"/><path class="cls-3" d="M596.74,283.57l-14.6-17.68A16,16,0,0,1,580,288.35L247.94,562.56A31.9,31.9,0,0,1,203,558.28L217.63,576a31.9,31.9,0,0,0,44.91,4.28L594.6,306a16,16,0,0,0,2.14-22.46Z"/><path class="cls-3" d="M408.67,270.07l-6.46,14.58a15.93,15.93,0,0,0,2.29,16.61l8.95,10.85a8,8,0,0,0,3,2.24,16,16,0,0,1,.36-12l6.46-14.58A16,16,0,0,0,421,271.13l-14.6-17.68A15.94,15.94,0,0,1,408.67,270.07Z"/><path class="cls-3" d="M387,54.68,282.5,141a8,8,0,0,0-1.08,11.23l9,10.85a15.9,15.9,0,0,0,4,3.46,8,8,0,0,1,2.7-7.86L401.63,72.36a16,16,0,0,0,2.15-22.46l-14.6-17.68A16,16,0,0,1,387,54.68Z"/></g><path d="M78.93,235.42a7.22,7.22,0,0,0,10.16,1l150.11-124,5.55,6.73A7.22,7.22,0,0,0,255.89,110l-5.56-6.73,87.26-72.06,41.58,50.36L292.5,153.11a15.22,15.22,0,0,0-2,21.4l9,10.84a23.07,23.07,0,0,0,23.08,7.83L338,189.59a8.69,8.69,0,0,1,8.69,2.95l68.69,83.19a8.67,8.67,0,0,1,1.25,9.09l-6.45,14.58a23,23,0,0,0,3.32,24.14l9,10.85a15.23,15.23,0,0,0,21.4,2l48.42-40a7.22,7.22,0,0,0-9.19-11.14l-48.43,40a.75.75,0,0,1-1.06-.1l-9-10.85a8.67,8.67,0,0,1-1.25-9.09l6.46-14.58a23.05,23.05,0,0,0-3.32-24.14l-68.69-83.18a23.07,23.07,0,0,0-23.08-7.83l-15.54,3.59a8.71,8.71,0,0,1-8.69-3l-9-10.85a.76.76,0,0,1,.1-1.06L406.23,77.92a23.19,23.19,0,0,0,3.11-32.62L378.88,8.41a23.2,23.2,0,0,0-32.62-3.12L79.9,225.25a7.22,7.22,0,0,0-1,10.17ZM367.74,17.6l30.47,36.9A8.75,8.75,0,0,1,397,66.79l-6.74,5.56L348.72,22l6.73-5.56A8.75,8.75,0,0,1,367.74,17.6Z"/><path d="M602.31,279l-30.47-36.9A23.19,23.19,0,0,0,539.22,239l-33.84,27.94a7.22,7.22,0,0,0,9.19,11.14l16-13.19,41.58,50.35-87.25,72.06-5.56-6.73a7.22,7.22,0,1,0-11.13,9.19l5.56,6.73L275.8,559.92l-234.54-284,25.56-21.11a7.22,7.22,0,1,0-9.2-11.14L14.19,279.51a39.16,39.16,0,0,0-5.25,55.07l203.12,246a39.16,39.16,0,0,0,55.07,5.26L599.2,311.6A23.2,23.2,0,0,0,602.31,279Zm-60.62-23.32,6.73-5.56a8.73,8.73,0,0,1,12.28,1.18l30.47,36.89A8.74,8.74,0,0,1,590,300.46L583.27,306Zm-318.5,315.7-203.12-246a24.72,24.72,0,0,1,3.32-34.75l6.73-5.56,234.55,284-6.73,5.56A24.71,24.71,0,0,1,223.19,571.36Z"/><path d="M357.45,233a7.22,7.22,0,1,0-11.14,9.2l20.32,24.6a7.22,7.22,0,1,0,11.13-9.2Z"/></svg>