<?xml version="1.0" encoding="utf-8"?>
<!-- Generator: Adobe Illustrator 25.2.0, SVG Export Plug-In . SVG Version: 6.00 Build 0)  -->
<svg version="1.1" id="_x33_0" xmlns="http://www.w3.org/2000/svg" xmlns:xlink="http://www.w3.org/1999/xlink" x="0px" y="0px"
	 viewBox="0 0 512 512" style="enable-background:new 0 0 512 512;" xml:space="preserve">
<style type="text/css">
	.st0{fill:#4FC1E9;}
</style>
<g>
	<path class="st0" d="M366,363.3c0,3-0.5,5.9-1.4,8.7l-9.2,27.8c-3.2,9.5-12.2,16-22.2,16c-4.6,0-9.2-1.4-13-3.9l-6.7-4.5
		c-7.1-4.8-11.4-12.7-11.4-21.2v-4.6c0-8.2,5.3-15.5,13-18.1c6.6-2.2,11-8.3,11-15.2s5.6-12.5,12.5-12.5c7.6,0,14.5,3,19.4,8.1
		C363,348.8,366,355.7,366,363.3L366,363.3z"/>
</g>
<g>
	<path class="st0" d="M200,228.4v7.9c0,5.4-2.2,10.2-5.7,13.8s-8.4,5.7-13.8,5.7c-3,0-6,0.7-8.6,2.1l-4.8,2.3
		c-4.6,2.4-9.8,3.6-15.1,3.6c-4.4,0-8.4-1.8-11.3-4.7c-3-2.9-4.7-6.9-4.7-11.3c0-10.4,3.4-20.5,9.6-28.8l7.6-10.1
		c4.2-5.8,11-9.1,18.2-9.1c6.2,0,12,2,16.7,5.4c4.8,3.4,8.6,8.3,10.5,14.2C199.5,222.2,200,225.4,200,228.4L200,228.4z"/>
</g>
<path d="M338.5,327.8c-11.3,0-20.5,9.2-20.5,20.5c0,3.4-2.2,6.5-5.5,7.6c-11.1,3.7-18.5,14-18.5,25.7v4.6c0,11.2,5.6,21.6,14.9,27.8
	l6.7,4.5c5.2,3.5,11.2,5.3,17.4,5.3c13.6,0,25.5-8.6,29.8-21.5l9.2-27.7c1.2-3.6,1.8-7.4,1.8-11.2
	C374,343.7,358.1,327.8,338.5,327.8z M357,369.5l-9.2,27.7c-2.1,6.3-8,10.6-14.7,10.6c-3.1,0-6-0.9-8.6-2.6l-6.7-4.5
	c-4.9-3.2-7.8-8.7-7.8-14.5v-4.6c0-4.8,3-9,7.6-10.5c9.8-3.3,16.4-12.4,16.4-22.8c0-2.5,2-4.5,4.5-4.5c10.8,0,19.5,8.8,19.5,19.5
	C358,365.4,357.7,367.5,357,369.5z"/>
<path d="M208,228.4c0-3.9-0.6-7.8-1.9-11.6c-5-15-19-25.1-34.8-25.1c-9.6,0-18.8,4.6-24.6,12.3l-7.6,10.1
	c-7.2,9.6-11.2,21.6-11.2,33.6c0,13.2,10.8,24,24,24c6.5,0,12.9-1.5,18.7-4.4l4.7-2.4c1.6-0.8,3.4-1.2,5.1-1.2
	c15.1,0,27.4-12.3,27.4-27.4L208,228.4z M192,236.3c0,6.3-5.1,11.4-11.4,11.4c-4.2,0-8.5,1-12.3,2.9l-4.7,2.4
	c-3.6,1.8-7.6,2.7-11.6,2.7c-4.4,0-8-3.6-8-8c0-8.6,2.8-17.1,8-24l7.6-10.1c2.8-3.7,7.2-5.9,11.8-5.9c8.9,0,16.8,5.7,19.6,14.1
	c0.7,2.1,1.1,4.3,1.1,6.5L192,236.3z"/>
</svg>
